<svg width="188" height="65" viewBox="0 0 188 65" fill="none" xmlns="http://www.w3.org/2000/svg">
<g clip-path="url(#clip0_542_1614)">
<path d="M188 64.8656H0L6.67574 51.559L0 38.6802H188L181.324 51.7773L188 64.8656ZM29.9843 61.5739L28.1391 52.0829C29.2357 51.332 29.7406 49.577 29.7406 47.6299C29.7406 43.9539 28.2435 41.9806 24.8317 41.9806H21.942V61.5739H24.8317V53.3053H25.6063L27.0946 61.5739H29.9843ZM26.9815 47.7346C26.9815 50.5374 25.6498 50.6422 24.8491 50.6422V44.8358C25.6324 44.8358 26.9815 44.9406 26.9815 47.7346ZM31.5683 61.5739H38.1657V58.6139H34.4319V53.2267H37.1039V50.0834H34.4319V44.9406H38.1483V41.9806H31.5509L31.5683 61.5739ZM39.7759 46.3551C39.7759 48.4593 41.0554 50.4588 42.387 52.467C43.475 54.1173 44.7109 55.6889 44.7109 56.9986C44.7109 58.3083 44.3889 59.1553 43.5359 59.1553C42.3261 59.1553 42.1694 57.409 42.1694 55.8199L39.3407 56.0906C39.3407 58.9981 39.8194 61.7922 43.5359 61.7922C46.6867 61.7922 47.5396 59.4696 47.5396 56.8589C47.5396 54.7547 46.1731 52.8076 44.8415 50.8081C43.7535 49.1753 42.6481 47.6822 42.6481 46.3551C42.6481 45.2287 42.8919 44.4342 43.6404 44.408C44.5978 44.408 44.7893 45.9272 44.7893 47.2282L47.618 46.9663C47.618 44.7747 47.0522 41.7274 43.5794 41.7274C40.8204 41.8235 39.7759 44.2159 39.7759 46.3551ZM51.2909 44.9406V61.5302H54.1719V44.9406H56.8961V41.9806H48.5667V44.9406H51.2909ZM59.3854 61.5302L59.925 57.5312H62.6667L63.1976 61.5302H66.0002L63.0409 41.937H59.5594L56.5741 61.5739L59.3854 61.5302ZM62.3011 54.4927H60.3254L61.1957 48.3109L61.2741 47.8045H61.4307L61.5178 48.3109L62.3011 54.4927ZM72.0231 41.9806V57.5487C72.0231 57.5487 72.0754 58.9894 71.057 58.9894C70.0387 58.9894 70.0996 57.5487 70.0996 57.5487V41.9806H67.2187V57.5487C67.2187 57.5487 67.2187 61.7834 71.057 61.7834C74.8954 61.7834 74.9041 57.5487 74.9041 57.5487V41.9806H72.0231ZM84.8524 61.5739L83.0159 52.0829C84.1039 51.332 84.6174 49.577 84.6174 47.6299C84.6174 43.9539 83.1204 41.9806 79.6998 41.9806H76.8189V61.5739H79.6998V53.3053H80.4744L81.9715 61.5739H84.8524ZM81.8148 47.7346C81.8148 50.5374 80.4744 50.6422 79.6737 50.6422V44.8358C80.5006 44.8358 81.8148 44.9406 81.8148 47.7346ZM88.7778 61.5739L89.3087 57.5749H92.0852L92.6248 61.5739H95.4274L92.5204 41.9806H89.0389L86.0709 61.5739H88.7778ZM91.6848 54.5364H89.7091L90.5794 48.3546L90.6578 47.8481H90.8231L90.9015 48.3546L91.6848 54.5364ZM102.712 61.5739H105.315V41.9806H102.704V53.0957H102.538L102.303 52.2226L99.4833 41.9806H96.9244V61.5739H99.5356V50.4588H99.6922L99.9359 51.332L102.712 61.5739ZM109.327 44.9842V61.5739H112.278V44.9842H115.002V41.9806H106.664V44.9406L109.327 44.9842ZM127.675 49.0618V46.0058C127.675 46.0058 127.675 41.7711 123.828 41.7711C119.981 41.7711 119.989 46.0058 119.989 46.0058V57.5487C119.989 57.5487 119.719 61.7834 123.375 61.7834C123.811 61.7733 124.239 61.6652 124.627 61.4673C125.016 61.2693 125.355 60.9865 125.621 60.6396L125.969 61.5739H127.709V51.8122H123.68V54.2395H124.829V57.7845C124.829 57.7845 124.881 59.2251 123.862 59.2251C122.844 59.2251 122.905 57.7845 122.905 57.7845V46.0058C122.905 46.0058 122.853 44.5651 123.862 44.5651C124.872 44.5651 124.829 46.0058 124.829 46.0058V49.0181L127.675 49.0618ZM137.614 61.6175L135.769 52.1265C136.866 51.3756 137.371 49.6206 137.371 47.6735C137.371 43.9976 135.874 42.0243 132.453 42.0243H129.572V61.6175H132.453V53.3053H133.228L134.725 61.5739L137.614 61.6175ZM134.594 47.7783C134.594 50.5811 133.254 50.6858 132.453 50.6858V44.8358C133.315 44.8358 134.655 44.9406 134.655 47.7346L134.594 47.7783ZM146.657 57.5924V46.0058C146.657 46.0058 146.657 41.7711 142.81 41.7711C138.963 41.7711 138.963 46.0058 138.963 46.0058V57.5487C138.963 57.5487 138.963 61.7834 142.81 61.7834C146.657 61.7834 146.718 57.5487 146.718 57.5487L146.657 57.5924ZM143.768 46.0495V57.5924C143.768 57.5924 143.829 59.033 142.81 59.033C141.792 59.033 141.853 57.5924 141.853 57.5924V46.0058C141.853 46.0058 141.792 44.5651 142.81 44.5651C143.829 44.5651 143.829 46.0058 143.829 46.0058L143.768 46.0495ZM153.237 42.0243V57.5924C153.237 57.5924 153.29 59.033 152.28 59.033C151.27 59.033 151.314 57.5924 151.314 57.5924V41.9806H148.433V57.5487C148.433 57.5487 148.433 61.7834 152.28 61.7834C156.127 61.7834 156.127 57.5487 156.127 57.5487V41.9806L153.237 42.0243ZM158.033 61.6175H161.019V53.7593C163.525 53.7593 166.093 52.371 166.093 47.8743C166.093 43.3777 163.525 42.0068 161.019 42.0068H158.129L158.033 61.6175ZM161.019 44.9144C162.829 44.9144 163.177 45.7875 163.177 47.9529C163.177 50.1183 162.829 50.7993 161.019 50.7993V44.9144Z" fill="#ECE9E8"/>
<path d="M41.7789 20.746C41.5352 21.5755 41.2566 22.4923 40.9607 23.5313C40.8737 24.0028 40.6822 24.256 40.3863 24.2822C40.0505 24.3534 39.7037 24.3534 39.3679 24.2822C38.5788 24.1309 38.2394 23.8951 38.3496 23.575C38.4105 23.4003 38.5411 22.9725 38.75 22.2914C38.837 21.9684 38.9066 21.7239 38.9502 21.5405C38.9744 21.4202 39.0123 21.303 39.0633 21.1913C39.2374 20.6587 39.1765 20.3182 38.8805 20.257C38.3426 20.0447 37.7767 19.9123 37.2007 19.8641C36.8439 19.8641 36.5392 20.2745 36.2694 21.104C34.5867 26.2322 32.698 29.9722 30.6033 32.3238C29.4555 33.7122 28.0123 34.825 26.3796 35.5805C24.7469 36.3359 22.9663 36.7149 21.1685 36.6895C20.3316 36.7012 19.4971 36.5984 18.6879 36.3839C15.6474 35.5515 14.1272 34.1254 14.1272 32.1055C14.1272 30.7784 14.6059 29.9576 15.5459 29.6258L15.8331 29.5647C15.8996 29.557 15.9668 29.557 16.0333 29.5647C16.3031 29.5647 16.5033 29.8092 16.6513 30.3156C17.0052 32.1084 18.5255 32.9612 21.212 32.8739C23.2226 32.7866 25.0939 31.7301 26.8433 29.6957C28.2525 27.9343 29.3854 25.9674 30.2029 23.8631L30.8209 22.1168L31.4476 20.3705C31.6478 19.7506 31.5346 19.4276 31.0907 19.3926C29.6264 19.3338 28.1612 19.4838 26.7389 19.8379C26.4429 19.8379 26.2515 19.7506 26.1644 19.576C26.0724 19.1826 26.0724 18.7732 26.1644 18.3798C26.3124 17.2884 26.7563 16.6859 27.4961 16.5637C29.039 16.1718 30.6158 15.9292 32.2048 15.839C32.3904 15.8643 32.5792 15.8318 32.7458 15.7459C32.9124 15.66 33.0486 15.5249 33.1361 15.3587C33.815 13.2632 34.4358 11.4441 34.9987 9.9016C35.5615 8.35906 36.0489 7.06972 36.4609 6.0336C36.6959 5.52718 36.6611 5.16046 36.3652 5.01203C35.4887 4.61387 34.5684 4.3208 33.6235 4.13889C32.7531 3.93806 32.0829 3.77217 31.4737 3.65866C30.9707 3.55401 30.4621 3.47822 29.9505 3.43164C29.1161 3.36615 28.2785 3.51019 27.5135 3.85075C26.8595 4.09086 26.311 4.55462 25.9642 5.16046C25.8401 5.37187 25.7768 5.61366 25.7815 5.85897C25.7842 6.003 25.8017 6.14636 25.8337 6.28681C25.8552 6.39636 25.8698 6.50719 25.8772 6.6186C25.8772 6.94166 25.6335 7.11629 25.1635 7.14248C24.917 7.17206 24.667 7.13967 24.436 7.04822C24.2051 6.95677 24.0004 6.80913 23.8405 6.6186C23.6063 6.39594 23.4245 6.12361 23.3086 5.82149C23.1926 5.51937 23.1454 5.19509 23.1703 4.87232C23.1652 3.90513 23.4804 2.96361 24.0664 2.19557C24.6524 1.42753 25.4761 0.876459 26.4081 0.628867C28.2858 0.0661221 30.252 -0.138234 32.2048 0.0264024C34.2709 0.128685 36.3169 0.483471 38.2974 1.0829C39.1677 1.31865 39.8902 1.5544 40.5081 1.79014C41.0384 1.98439 41.5585 2.20587 42.0661 2.45373C42.4142 2.62836 42.5013 3.03873 42.3272 3.69359C41.7121 5.48061 41.0623 7.37241 40.3776 9.36899L38.2103 15.708C38.0624 16.1533 38.2539 16.4152 38.7848 16.5025C39.8793 16.6565 40.9498 16.9499 41.9703 17.3757C42.4142 17.559 42.5796 17.9519 42.4577 18.5719C42.3359 19.1918 41.9877 19.9252 41.7789 20.746Z" fill="#ECE9E8"/>
<path d="M55.5737 27.8183C54.406 29.0241 52.8781 29.815 51.2218 30.071C50.344 30.2414 49.4526 30.332 48.5585 30.3416C47.4274 30.374 46.3025 30.1626 45.2598 29.7217C44.6852 29.3919 44.2163 28.9046 43.908 28.3169C43.5997 27.7293 43.4648 27.0656 43.5191 26.4038C43.5191 26.1942 43.5191 25.9585 43.5191 25.6965C43.5191 25.4346 43.5191 25.1203 43.5887 24.771C44.0954 21.1471 44.8929 17.5702 45.9735 14.0751C47.0644 10.2449 48.0798 7.13652 49.0198 4.74994C50.0294 2.13052 51.4394 0.847006 53.2759 0.99544C53.5776 1.02205 53.8699 1.11388 54.1328 1.2646C54.3958 1.41532 54.6231 1.62137 54.7991 1.86858C55.2161 2.43588 55.4279 3.12883 55.3996 3.83314C55.397 4.38264 55.3059 4.92811 55.1298 5.44845C54.4128 7.45628 53.3815 9.33672 52.0748 11.0191C51.714 11.6093 51.4025 12.2284 51.1435 12.8701C49.4898 17.8179 48.3409 21.747 47.6968 24.6575C47.5306 25.2267 47.4255 25.8121 47.3835 26.4038C47.3736 26.5631 47.3963 26.7227 47.4502 26.8728C47.5041 27.023 47.588 27.1605 47.6968 27.2769C48.1059 27.696 49.1068 27.8968 50.7083 27.8968C51.4866 27.8223 52.2328 27.5488 52.8755 27.1023C53.3575 26.8207 53.8172 26.5026 54.2507 26.1506C54.6505 25.8214 55.0073 25.443 55.3126 25.0242C55.4605 24.8496 55.5737 24.8933 55.6607 25.1552C55.8803 25.7092 55.9581 26.3096 55.887 26.9015C55.8709 27.2306 55.7623 27.5485 55.5737 27.8183Z" fill="#ECE9E8"/>
<path d="M78.0204 27.8181C76.8527 29.0239 75.3248 29.8147 73.6686 30.0707C73.3025 30.1331 72.9336 30.1768 72.5632 30.2017C72.1802 30.2017 71.7798 30.2454 71.3621 30.2454C69.2964 30.2454 67.8864 29.9747 67.1321 29.4334C66.7827 29.1954 66.4984 28.8732 66.3053 28.4964C66.1122 28.1196 66.0164 27.7003 66.0267 27.2767C66.0667 26.6191 66.1836 25.9686 66.3748 25.3383C66.3928 25.2955 66.402 25.2495 66.402 25.203C66.402 25.1565 66.3928 25.1105 66.3748 25.0677C66.3226 25.0677 66.2356 25.0677 66.1311 25.155C66.0315 25.2419 65.9514 25.349 65.8961 25.4693C65.2895 26.5646 64.4904 27.5407 63.5374 28.3507C62.2809 29.6472 60.5921 30.4336 58.7939 30.5597C58.1597 30.5937 57.5262 30.4798 56.9433 30.2268C56.3603 29.9738 55.8438 29.5886 55.4343 29.1016C54.5681 28.1192 54.1102 26.8412 54.1548 25.5304C54.221 23.3413 54.8185 21.2013 55.8956 19.2962C57.0083 17.097 58.7633 15.2907 60.9263 14.1185C62.396 13.2688 64.0527 12.7978 65.7482 12.7477C66.9024 12.7064 68.0477 12.965 69.073 13.4986C69.543 13.7692 69.865 13.7343 70.0478 13.4113C70.1986 13.1568 70.3766 12.9196 70.5787 12.704C70.7786 12.4952 71.0184 12.3289 71.2837 12.2151C72.3958 12.1736 73.5028 12.3855 74.5215 12.835C74.6641 13.0264 74.7489 13.2549 74.7658 13.4932C74.7828 13.7316 74.7312 13.9698 74.6173 14.1796C74.1995 15.0528 73.3726 16.8951 72.1367 19.6629C71.6667 20.7544 71.2663 21.7148 70.9617 22.553C70.6571 23.3912 70.396 24.1247 70.1871 24.7446C70.0023 25.24 69.8965 25.7616 69.8737 26.2901C69.8638 26.4493 69.8865 26.609 69.9404 26.7591C69.9943 26.9093 70.0782 27.0468 70.1871 27.1632C70.6571 27.6347 71.6493 27.8704 73.155 27.8704C73.9333 27.7959 74.6795 27.5224 75.3223 27.0759C75.8042 26.7943 76.2639 26.4762 76.6974 26.1242C77.0972 25.795 77.454 25.4166 77.7593 24.9978C77.9073 24.8232 78.0204 24.8668 78.1161 25.1288C78.3286 25.6846 78.4032 26.2839 78.3337 26.8751C78.3226 27.2132 78.2137 27.5408 78.0204 27.8181V27.8181ZM68.4637 16.799C68.4637 16.2926 67.9589 16.0307 66.958 16.0045C65.7921 16.0309 64.6621 16.4148 63.7202 17.1046C62.56 17.8516 61.5647 18.8293 60.7958 19.9773C59.4728 22.0728 58.8113 23.8365 58.8113 25.2859C58.8113 26.7354 59.3423 27.3553 60.4041 27.3553C61.188 27.2383 61.8994 26.83 62.3973 26.2115C62.5452 26.063 62.7715 25.8098 63.0761 25.4344L64.2947 24.0024C65.946 21.8671 67.3287 19.5357 68.4115 17.061C68.4508 16.9795 68.4688 16.8894 68.4637 16.799V16.799Z" fill="#ECE9E8"/>
<path d="M100.963 27.8179C99.7928 29.0206 98.2661 29.8109 96.611 30.0706L95.436 30.2016C94.9834 30.2627 94.4438 30.3238 93.8258 30.3849C91.9023 30.6469 90.7708 31.2057 90.4139 32.0614C88.9749 35.4492 87.6491 37.6378 86.4364 38.6274C85.6194 39.4886 84.5181 40.0224 83.3378 40.1292C82.7331 40.1329 82.1491 39.9085 81.7015 39.5005C81.4777 39.3034 81.3011 39.0581 81.185 38.783C81.069 38.5078 81.0164 38.2098 81.0314 37.9114C81.0555 37.2681 81.2315 36.6396 81.5449 36.0778C82.0456 35.209 82.6801 34.4252 83.4249 33.7553C84.1093 33.0688 84.8856 32.4811 85.7314 32.009C85.9315 31.8867 86.1404 31.7558 86.3493 31.6073L87.5243 29.0927C87.916 28.2196 88.3251 27.3464 88.7428 26.3947C88.8821 26.1589 88.8386 26.0454 88.6036 26.0454C88.3686 26.0454 88.3251 26.1415 88.2119 26.351C87.4867 27.351 86.5656 28.1918 85.5051 28.822C84.2041 29.8494 82.6 30.4145 80.9443 30.4286C78.3332 30.219 77.0973 28.6823 77.0973 25.6962C77.0881 23.56 77.6213 21.4566 78.6465 19.5842C79.6972 17.6434 81.1879 15.9775 82.9984 14.7208C84.6338 13.4805 86.615 12.7844 88.6645 12.7301C89.8502 12.7264 91.0145 13.0463 92.0328 13.6556C92.0754 13.7368 92.1392 13.8049 92.2174 13.8526C92.2956 13.9003 92.3852 13.9257 92.4767 13.9263C92.7988 13.9263 93.1121 13.6032 93.408 12.9484C93.6515 12.6511 93.9702 12.425 94.3306 12.2935C94.758 12.2342 95.1914 12.2342 95.6188 12.2935C96.0863 12.2862 96.5515 12.3601 96.9939 12.5118C97.2113 12.5902 97.3995 12.7335 97.5333 12.9223C97.6671 13.1112 97.7401 13.3366 97.7425 13.5683C97.7425 13.7778 96.8721 16.1499 95.1314 20.6844L92.3462 27.8441C92.3194 27.8834 92.3015 27.9281 92.2939 27.9751C92.3004 27.9903 92.3037 28.0066 92.3037 28.0231C92.3037 28.0396 92.3004 28.0559 92.2939 28.0711C92.2417 28.2108 92.2417 28.2981 92.2939 28.3331C92.4 28.3339 92.5055 28.3192 92.6073 28.2894C93.7896 28.0571 94.9889 27.9228 96.1932 27.8878C97.1106 27.7863 97.9832 27.4362 98.7173 26.8749C99.4937 26.3553 100.194 25.7293 100.797 25.0151C100.945 24.8405 101.067 24.8842 101.154 25.1461C101.367 25.7019 101.441 26.3012 101.372 26.8924C101.33 27.2346 101.187 27.5567 100.963 27.8179ZM91.0841 16.1266C90.7006 15.934 90.2771 15.8352 89.8482 15.8384C89.2718 15.8518 88.705 15.9887 88.1858 16.2401C87.5664 16.5263 86.9822 16.8838 86.4451 17.3053C85.8344 17.7721 85.2769 18.305 84.7827 18.8944C84.249 19.5195 83.7604 20.1818 83.3204 20.8765C82.3557 22.202 81.7554 23.7588 81.5797 25.3906C81.5797 26.6566 82.0932 27.2853 83.1289 27.2853C84.3039 27.2853 86.0795 25.6525 88.4382 22.3783C89.6194 20.7563 90.6013 18.9973 91.3626 17.1394C91.5715 16.6679 91.4671 16.3187 91.0841 16.1266Z" fill="#ECE9E8"/>
<path d="M119.293 27.8181C118.123 29.0208 116.597 29.8111 114.942 30.0708C113.978 30.2245 113 30.2684 112.026 30.2017C111.17 30.2137 110.323 30.0348 109.545 29.6779C109.465 29.6341 109.376 29.6069 109.285 29.5979C109.194 29.5889 109.102 29.5983 109.014 29.6255C108.301 29.8961 107.935 30.0446 107.9 30.0708C107.127 30.2164 106.345 30.3068 105.559 30.3414C104.646 30.4505 103.72 30.356 102.847 30.0647C101.975 29.7734 101.177 29.2925 100.511 28.6563C100.328 28.5079 100.189 28.4991 100.067 28.6563C99.0786 29.4092 97.9226 29.9096 96.6986 30.1144C96.4375 30.1144 96.2895 30.0271 96.2547 29.8525C96.0498 29.3941 95.9459 28.8967 95.9501 28.3943C95.9501 28.0975 96.011 27.9403 96.1242 27.9054C97.91 27.487 99.5022 26.4745 100.641 25.0328C101.059 24.5613 101.512 23.9413 102.147 23.1555C102.782 22.3697 103.418 21.4092 104.184 20.3527C105.345 18.8594 106.34 17.2432 107.152 15.533C107.162 15.2294 107.093 14.9285 106.952 14.6599C106.79 14.3064 106.707 13.9222 106.708 13.5335C106.7 13.4085 106.7 13.2831 106.708 13.1581C106.721 13.0174 106.741 12.8775 106.769 12.739C106.86 12.3521 107.034 11.9899 107.279 11.6777C107.524 11.3654 107.834 11.1108 108.187 10.9316C108.891 10.4433 109.726 10.1814 110.581 10.1807C112.026 10.2331 112.731 10.8093 112.705 11.9269C112.591 12.4539 112.397 12.9604 112.13 13.4287C111.921 13.8391 111.756 14.1709 111.643 14.4241C111.53 14.6773 111.434 14.8607 111.373 14.9742C111.225 15.3846 111.225 15.6552 111.373 15.7688C111.715 16.0445 112.009 16.3749 112.243 16.7467C112.563 17.2296 112.854 17.731 113.114 18.2485C113.829 19.6234 114.18 21.1599 114.132 22.7102C114.091 23.1649 114.01 23.6149 113.888 24.0548C113.526 25.2153 112.934 26.2904 112.148 27.2156C111.939 27.4252 111.956 27.6085 112.148 27.7657C112.863 27.984 113.619 28.0378 114.358 27.9228C115.133 27.821 115.876 27.5498 116.534 27.1283C117.491 26.6309 118.322 25.92 118.963 25.0502C119.111 24.8756 119.232 24.9192 119.32 25.1812C119.536 25.736 119.611 26.3363 119.537 26.9275C119.537 27.2409 119.453 27.5485 119.293 27.8181V27.8181ZM109.371 21.9418C109.406 21.0177 109.239 20.0971 108.884 19.2438C108.797 19.043 108.684 18.9644 108.536 19.0256C108.388 19.0867 108.266 19.1303 108.179 19.3312C107.542 20.343 106.848 21.3167 106.099 22.2474C104.976 23.6619 104.219 24.5962 103.836 25.0328C103.726 25.16 103.651 25.3133 103.618 25.4781C103.618 25.6527 103.792 25.8011 104.149 25.9234C104.424 26.0769 104.659 26.2926 104.835 26.5533C105.012 26.8141 105.126 27.1126 105.167 27.4252C105.228 27.6609 105.533 27.6871 106.099 27.5125C106.836 27.2365 107.494 26.7807 108.012 26.1862C108.53 25.5918 108.892 24.8773 109.067 24.1072C109.28 23.4057 109.383 22.6751 109.371 21.9418V21.9418Z" fill="#ECE9E8"/>
<path d="M141.696 27.8184C140.527 29.0226 139 29.8132 137.344 30.0711C136.961 30.1322 136.569 30.1846 136.178 30.2282C135.759 30.2742 135.337 30.2975 134.916 30.2981C133.246 30.4131 131.576 30.0912 130.068 29.3638C129.629 29.1567 129.254 28.8335 128.984 28.4289C128.714 28.0243 128.559 27.5537 128.536 27.0675C128.536 26.954 128.536 26.7968 128.536 26.6047C128.536 26.4126 128.536 26.1943 128.597 25.9586C128.986 24.3121 129.474 22.6909 130.059 21.1039C130.294 20.4491 130.52 19.803 130.747 19.1568C130.973 18.5107 131.199 17.8646 131.434 17.2097C131.452 17.0794 131.452 16.9472 131.434 16.8168C131.434 16.4588 131.286 16.2842 130.99 16.2842C130.575 16.3275 130.178 16.4812 129.841 16.7295C128.893 17.2883 127.422 19.087 125.411 22.1168C123.961 24.1755 122.79 26.4188 121.93 28.7876C121.695 29.5559 121.286 29.9838 120.694 30.0711C120.129 30.2359 119.536 30.2805 118.953 30.202C118.222 30.0274 117.926 29.5123 118.083 28.6566C118.379 27.1548 118.866 25.164 119.562 22.5446C120.259 19.9252 121.164 16.8255 122.287 13.1147C124.259 6.74661 125.42 3.15219 125.768 2.33144C125.898 2.03435 126.091 1.76898 126.333 1.55348C126.575 1.33798 126.86 1.17744 127.169 1.08285C127.708 0.955087 128.261 0.896408 128.814 0.908225C129.33 0.90076 129.84 1.00501 130.311 1.21383C130.508 1.34699 130.672 1.52451 130.788 1.73221C130.904 1.93991 130.971 2.17203 130.982 2.41002C130.967 2.80534 130.876 3.19397 130.712 3.55384C128.971 8.03595 127.628 11.4761 126.682 13.8743L125.046 18.0567C124.837 18.5194 124.88 18.7552 125.176 18.7552C125.272 18.7552 125.324 18.7028 125.359 18.5806C125.495 18.3474 125.649 18.1255 125.82 17.917C126.076 17.591 126.424 17.1632 126.865 16.6335L128.188 15.0531C128.548 14.6244 128.934 14.2191 129.345 13.8394C129.84 13.324 130.434 12.9144 131.09 12.6353C131.747 12.3562 132.453 12.2133 133.166 12.2154C133.603 12.2055 134.038 12.2674 134.454 12.3987C135.063 12.5548 135.596 12.9259 135.954 13.4439C136.312 13.962 136.472 14.5922 136.404 15.219C136.399 15.5151 136.352 15.8091 136.265 16.0921C135.882 17.1224 135.464 18.3273 135.003 19.7156C134.541 21.1039 134.019 22.6756 133.436 24.4393C133.239 24.9646 133.133 25.5198 133.123 26.0808C133.115 26.3846 133.205 26.6828 133.381 26.9301C133.557 27.1775 133.809 27.3606 134.098 27.4516C134.98 27.7494 135.909 27.8826 136.839 27.8446C137.621 27.7719 138.37 27.4982 139.015 27.05C139.494 26.7684 139.951 26.4502 140.382 26.0983C140.786 25.7717 141.146 25.3929 141.452 24.9719C141.591 24.7973 141.713 24.841 141.8 25.1029C142.016 25.658 142.093 26.2573 142.027 26.8492C142.015 27.1982 141.9 27.5357 141.696 27.8184V27.8184Z" fill="#ECE9E8"/>
<path d="M153.785 27.8183C152.615 29.021 151.088 29.8113 149.433 30.071C149.076 30.1329 148.715 30.1766 148.354 30.202C147.979 30.202 147.588 30.2456 147.179 30.2456C145.29 30.2456 143.976 30.0011 143.236 29.4947C142.858 29.2344 142.503 28.9423 142.174 28.6216C141.919 28.3625 141.702 28.0686 141.53 27.7484C141.368 27.4261 141.264 27.0771 141.225 26.7181C141.172 26.2632 141.149 25.8053 141.156 25.3473C141.253 24.6669 141.392 23.9932 141.573 23.3304C141.826 22.3175 142.2 20.9729 142.705 19.2877C143.001 18.3447 143.291 17.4017 143.575 16.4588C143.863 15.5158 144.141 14.5728 144.446 13.6298C144.479 13.3376 144.591 13.0601 144.771 12.8276C144.95 12.5951 145.19 12.4165 145.464 12.3113C146.485 11.9852 147.576 11.952 148.615 12.2153C148.757 12.2565 148.889 12.3298 148.999 12.4297C149.109 12.5295 149.195 12.6533 149.25 12.7916C149.414 13.1051 149.469 13.4646 149.407 13.8131C148.827 15.4663 148.246 17.1893 147.666 18.9821C147.086 20.775 146.45 22.661 145.76 24.6401C145.574 25.1823 145.454 25.7452 145.403 26.3165C145.384 26.4765 145.402 26.6388 145.456 26.7905C145.511 26.9421 145.6 27.0788 145.716 27.1896C146.667 27.7854 147.787 28.0493 148.902 27.9405C149.681 27.8688 150.428 27.5949 151.069 27.146C151.552 26.8665 152.012 26.5482 152.444 26.1943C152.846 25.8675 153.203 25.4888 153.506 25.0679C153.654 24.8933 153.776 24.9369 153.863 25.1989C154.08 25.7536 154.154 26.354 154.081 26.9452C154.062 27.2575 153.96 27.5591 153.785 27.8183V27.8183ZM149.973 6.2081C149.656 6.21347 149.342 6.15405 149.05 6.03347C148.633 5.8961 148.271 5.62902 148.016 5.27102C147.761 4.91303 147.626 4.48276 147.631 4.04272C147.66 3.30891 147.872 2.59417 148.249 1.96464C148.477 1.55329 148.823 1.22014 149.242 1.00841C149.661 0.79667 150.134 0.716112 150.599 0.777178C150.895 0.772112 151.189 0.816371 151.47 0.908147C151.901 1.06283 152.272 1.35246 152.528 1.73441C152.783 2.11635 152.909 2.57045 152.888 3.02988C152.899 3.53897 152.776 4.042 152.531 4.48802C152.299 4.97925 151.938 5.39835 151.488 5.7011C151.037 6.00384 150.514 6.17901 149.973 6.2081Z" fill="#ECE9E8"/>
<path d="M175.127 27.8179C173.958 29.0222 172.431 29.8128 170.775 30.0706C170.133 30.214 169.481 30.3103 168.825 30.3587C168.246 30.3937 167.664 30.3937 167.085 30.3587C165.739 30.3526 164.399 30.1736 163.098 29.8261C162.867 29.7085 162.602 29.6775 162.35 29.7388C161.944 29.8733 161.527 29.9755 161.105 30.0444L159.364 30.3587C159.452 30.3587 159.26 30.3587 158.79 30.2889L156.527 30.0444C156.42 30.0265 156.31 30.0382 156.209 30.0782C156.107 30.1182 156.019 30.185 155.953 30.2714C155.544 31.6859 155.082 33.1266 154.717 34.6371C154.351 36.1477 153.846 37.6495 153.429 39.2386C153.328 39.5006 153.161 39.7318 152.944 39.9094C152.728 40.087 152.469 40.2049 152.193 40.2514C151.205 40.6239 150.116 40.6239 149.129 40.2514C149.018 40.2135 148.915 40.1533 148.828 40.0746C148.74 39.9958 148.67 39.9002 148.62 39.7933C148.57 39.6864 148.543 39.5705 148.539 39.4527C148.535 39.3348 148.555 39.2175 148.598 39.1076C149.08 37.8677 149.7 36.0167 150.461 33.5544C151.221 31.0922 152.167 28.0071 153.298 24.2992C153.89 22.0901 154.499 19.8636 155.134 17.6022C155.77 15.3407 156.423 13.0619 157.102 10.7306C157.288 10.32 157.62 9.99333 158.033 9.81378C158.471 9.71822 158.917 9.65981 159.364 9.63915C159.858 9.60637 160.354 9.66558 160.827 9.81378C160.967 9.85541 161.096 9.92814 161.204 10.0266C161.313 10.125 161.398 10.2467 161.453 10.3825C161.508 10.5184 161.532 10.6649 161.523 10.8113C161.514 10.9577 161.472 11.1002 161.401 11.2283C161.279 11.5484 161.079 12.1683 160.801 13.088C160.522 13.9612 160.174 15.236 159.756 16.7989C159.704 17.0375 159.704 17.1685 159.756 17.1918C159.817 17.2529 159.895 17.1918 159.982 17.1045C162.524 14.1242 164.709 12.6369 166.536 12.6428C167.198 12.6387 167.851 12.7912 168.442 13.088C169.224 13.3988 169.893 13.9414 170.36 14.6434C170.826 15.3455 171.068 16.1736 171.054 17.0172C171.018 17.9646 170.928 18.9092 170.784 19.8461C170.456 21.4763 169.776 23.0143 168.791 24.3515C168.205 25.2799 167.541 26.1562 166.806 26.971C166.449 27.3202 166.406 27.5472 166.667 27.6345C167.855 28.0095 169.116 28.0845 170.34 27.8528C171.103 27.7059 171.837 27.4377 172.516 27.0583C173.437 26.5622 174.236 25.8673 174.857 25.0239C175.005 24.8492 175.127 24.8929 175.214 25.1548C175.429 25.7099 175.507 26.3092 175.44 26.9011C175.424 27.2302 175.315 27.5481 175.127 27.8179ZM166.38 16.7989C166.203 16.6064 165.987 16.4538 165.747 16.3515C165.507 16.2491 165.248 16.1992 164.987 16.2052C164.567 16.2182 164.156 16.3384 163.795 16.5544C162.924 17.0608 161.68 18.5452 160.026 21.0249C158.901 22.5868 157.966 24.2781 157.241 26.0629C157.183 26.3016 157.226 26.4325 157.371 26.4558C157.583 26.4772 157.796 26.441 157.989 26.351C158.375 26.2297 158.778 26.1765 159.182 26.1939C160.3 26.132 161.415 26.3606 162.419 26.8574C162.533 26.9186 162.785 26.7178 163.168 26.2812C164.182 25.0726 165.031 23.7336 165.692 22.2997C166.345 21.0969 166.753 19.7763 166.893 18.4142C166.92 18.1241 166.889 17.8316 166.801 17.554C166.712 17.2765 166.569 17.0196 166.38 16.7989Z" fill="#ECE9E8"/>
</g>
<defs>
<clipPath id="clip0_542_1614">
<rect width="188" height="64.8655" fill="white"/>
</clipPath>
</defs>
</svg>
